<svg width="40" height="40" viewBox="0 0 40 40" fill="none" xmlns="http://www.w3.org/2000/svg">
<rect width="40" height="40" rx="12" fill="#66CA98"/>
<path d="M20.5 9.34375C18.7362 9.34362 17.0027 9.80286 15.4702 10.6763C13.9378 11.5497 12.6592 12.8071 11.7605 14.3248C10.8617 15.8425 10.3736 17.5681 10.3444 19.3317C10.3152 21.0953 10.7458 22.8362 11.5938 24.3828L10.7637 27.3125C10.6863 27.5795 10.6819 27.8623 10.7511 28.1315C10.8203 28.4008 10.9605 28.6465 11.157 28.843C11.3536 29.0396 11.5993 29.1797 11.8685 29.2489C12.1377 29.3181 12.4206 29.3138 12.6875 29.2363L15.6172 28.4062C16.9749 29.1504 18.4848 29.5743 20.0314 29.6455C21.578 29.7167 23.1204 29.4334 24.5408 28.8172C25.9611 28.201 27.2218 27.2682 28.2264 26.0902C29.2311 24.9121 29.9531 23.52 30.3372 22.0201C30.7214 20.5203 30.7576 18.9525 30.4431 17.4365C30.1285 15.9206 29.4715 14.4966 28.5223 13.2734C27.5731 12.0503 26.3568 11.0603 24.9664 10.3792C23.576 9.69815 22.0483 9.34396 20.5 9.34375ZM20.5 28.0938C18.9574 28.0923 17.4433 27.6775 16.1153 26.8926C15.9927 26.8243 15.8552 26.7874 15.7149 26.7852C15.6423 26.7853 15.57 26.7951 15.5 26.8145L12.2579 27.7422L13.1856 24.5C13.2141 24.3974 13.2219 24.2902 13.2085 24.1845C13.1951 24.0789 13.1607 23.977 13.1075 23.8848C12.14 22.2541 11.7391 20.3492 11.967 18.4669C12.1949 16.5846 13.039 14.8305 14.3677 13.4778C15.6964 12.1252 17.4351 11.2499 19.313 10.9884C21.191 10.7269 23.1027 11.0937 24.7504 12.0319C26.3981 12.97 27.6894 14.4267 28.4229 16.1751C29.1565 17.9235 29.2913 19.8655 28.8062 21.6985C28.3212 23.5314 27.2435 25.1525 25.7412 26.3093C24.2388 27.466 22.3961 28.0934 20.5 28.0938ZM21.6719 19.5C21.6719 19.7318 21.6032 19.9583 21.4744 20.1511C21.3456 20.3438 21.1626 20.494 20.9485 20.5827C20.7344 20.6714 20.4987 20.6946 20.2714 20.6494C20.0441 20.6041 19.8353 20.4925 19.6714 20.3286C19.5075 20.1648 19.3959 19.9559 19.3507 19.7286C19.3055 19.5013 19.3287 19.2657 19.4174 19.0515C19.5061 18.8374 19.6563 18.6544 19.849 18.5256C20.0417 18.3969 20.2683 18.3281 20.5 18.3281C20.8108 18.3281 21.1089 18.4516 21.3287 18.6714C21.5484 18.8911 21.6719 19.1892 21.6719 19.5ZM16.9844 19.5C16.9844 19.7318 16.9157 19.9583 16.7869 20.1511C16.6582 20.3438 16.4751 20.494 16.261 20.5827C16.0469 20.6714 15.8112 20.6946 15.5839 20.6494C15.3566 20.6041 15.1478 20.4925 14.9839 20.3286C14.82 20.1648 14.7084 19.9559 14.6632 19.7286C14.618 19.5013 14.6412 19.2657 14.7299 19.0515C14.8186 18.8374 14.9688 18.6544 15.1615 18.5256C15.3542 18.3969 15.5808 18.3281 15.8125 18.3281C16.1233 18.3281 16.4214 18.4516 16.6412 18.6714C16.8609 18.8911 16.9844 19.1892 16.9844 19.5ZM26.3594 19.5C26.3594 19.7318 26.2907 19.9583 26.1619 20.1511C26.0331 20.3438 25.8501 20.494 25.636 20.5827C25.4219 20.6714 25.1862 20.6946 24.9589 20.6494C24.7316 20.6041 24.5228 20.4925 24.3589 20.3286C24.195 20.1648 24.0834 19.9559 24.0382 19.7286C23.993 19.5013 24.0162 19.2657 24.1049 19.0515C24.1936 18.8374 24.3438 18.6544 24.5365 18.5256C24.7292 18.3969 24.9558 18.3281 25.1875 18.3281C25.4983 18.3281 25.7964 18.4516 26.0162 18.6714C26.2359 18.8911 26.3594 19.1892 26.3594 19.5Z" fill="white" stroke="white" stroke-width="0.2"/>
</svg>
