<svg width="213" height="139" viewBox="0 0 213 139" fill="none" xmlns="http://www.w3.org/2000/svg">
<g filter="url(#filter0_d_9_435)">
<rect x="20" y="16" width="173" height="99" rx="18" fill="white"/>
<path d="M114.639 58.2031V71H112.222V58.2031H114.639ZM119.798 63.7314V65.6387H114.006V63.7314H119.798ZM120.475 58.2031V60.1104H114.006V58.2031H120.475ZM126.021 71.1758C125.3 71.1758 124.652 71.0586 124.078 70.8242C123.504 70.5898 123.015 70.2646 122.61 69.8486C122.212 69.4268 121.904 68.9375 121.688 68.3809C121.477 67.8184 121.371 67.2148 121.371 66.5703V66.2188C121.371 65.4863 121.477 64.8213 121.688 64.2236C121.898 63.6201 122.197 63.1016 122.584 62.668C122.971 62.2344 123.434 61.9004 123.973 61.666C124.512 61.4316 125.106 61.3145 125.757 61.3145C126.431 61.3145 127.025 61.4287 127.541 61.6572C128.057 61.8799 128.487 62.1963 128.833 62.6064C129.179 63.0166 129.439 63.5088 129.615 64.083C129.791 64.6514 129.879 65.2812 129.879 65.9727V66.9482H122.426V65.3486H127.594V65.1729C127.582 64.8037 127.512 64.4668 127.383 64.1621C127.254 63.8516 127.055 63.6055 126.785 63.4238C126.516 63.2363 126.167 63.1426 125.739 63.1426C125.394 63.1426 125.092 63.2188 124.834 63.3711C124.582 63.5176 124.371 63.7285 124.201 64.0039C124.037 64.2734 123.914 64.5957 123.832 64.9707C123.75 65.3457 123.709 65.7617 123.709 66.2188V66.5703C123.709 66.9688 123.762 67.3379 123.867 67.6777C123.979 68.0176 124.14 68.3135 124.351 68.5654C124.567 68.8115 124.825 69.0049 125.124 69.1455C125.429 69.2803 125.774 69.3477 126.161 69.3477C126.647 69.3477 127.087 69.2539 127.479 69.0664C127.878 68.873 128.224 68.5889 128.517 68.2139L129.686 69.4268C129.486 69.7197 129.217 70.001 128.877 70.2705C128.543 70.54 128.139 70.7598 127.664 70.9297C127.189 71.0938 126.642 71.1758 126.021 71.1758ZM133.746 63.4414V71H131.426V61.4902H133.614L133.746 63.4414ZM133.403 65.9023H132.691C132.691 65.2402 132.771 64.6309 132.929 64.0742C133.093 63.5176 133.333 63.0342 133.649 62.624C133.966 62.208 134.355 61.8857 134.818 61.6572C135.287 61.4287 135.829 61.3145 136.444 61.3145C136.872 61.3145 137.265 61.3789 137.622 61.5078C137.979 61.6309 138.287 61.8271 138.545 62.0967C138.809 62.3604 139.011 62.7061 139.151 63.1338C139.292 63.5557 139.362 64.0625 139.362 64.6543V71H137.042V64.8916C137.042 64.4463 136.978 64.0977 136.849 63.8457C136.726 63.5938 136.547 63.418 136.312 63.3184C136.078 63.2129 135.797 63.1602 135.469 63.1602C135.105 63.1602 134.792 63.2334 134.528 63.3799C134.271 63.5205 134.057 63.7168 133.887 63.9688C133.723 64.2207 133.6 64.5107 133.518 64.8389C133.441 65.167 133.403 65.5215 133.403 65.9023ZM139.187 65.4717L138.229 65.6475C138.234 65.0498 138.316 64.4902 138.475 63.9688C138.633 63.4414 138.864 62.9814 139.169 62.5889C139.479 62.1904 139.863 61.8799 140.32 61.6572C140.783 61.4287 141.316 61.3145 141.92 61.3145C142.389 61.3145 142.811 61.3818 143.186 61.5166C143.566 61.6455 143.892 61.8535 144.161 62.1406C144.431 62.4219 144.636 62.7881 144.776 63.2393C144.923 63.6904 144.996 64.2412 144.996 64.8916V71H142.658V64.8828C142.658 64.4199 142.594 64.0654 142.465 63.8193C142.342 63.5732 142.163 63.4033 141.929 63.3096C141.694 63.21 141.419 63.1602 141.103 63.1602C140.78 63.1602 140.499 63.2217 140.259 63.3447C140.024 63.4619 139.825 63.626 139.661 63.8369C139.503 64.0479 139.383 64.2939 139.301 64.5752C139.225 64.8506 139.187 65.1494 139.187 65.4717ZM152.317 68.9785V64.5928C152.317 64.2705 152.262 63.9922 152.15 63.7578C152.039 63.5234 151.869 63.3418 151.641 63.2129C151.412 63.084 151.122 63.0195 150.771 63.0195C150.46 63.0195 150.188 63.0723 149.953 63.1777C149.725 63.2832 149.549 63.4326 149.426 63.626C149.303 63.8135 149.241 64.0303 149.241 64.2764H146.912C146.912 63.8838 147.006 63.5117 147.193 63.1602C147.381 62.8027 147.647 62.4863 147.993 62.2109C148.345 61.9297 148.764 61.71 149.25 61.5518C149.742 61.3936 150.293 61.3145 150.902 61.3145C151.623 61.3145 152.265 61.4375 152.827 61.6836C153.396 61.9238 153.841 62.2871 154.163 62.7734C154.491 63.2598 154.655 63.8721 154.655 64.6104V68.7588C154.655 69.2334 154.685 69.6406 154.743 69.9805C154.808 70.3145 154.901 70.6045 155.024 70.8506V71H152.66C152.549 70.7598 152.464 70.4551 152.405 70.0859C152.347 69.7109 152.317 69.3418 152.317 68.9785ZM152.643 65.208L152.66 66.5879H151.192C150.829 66.5879 150.51 66.626 150.234 66.7021C149.959 66.7725 149.733 66.8779 149.558 67.0186C149.382 67.1533 149.25 67.3174 149.162 67.5107C149.074 67.6982 149.03 67.9121 149.03 68.1523C149.03 68.3867 149.083 68.5977 149.188 68.7852C149.3 68.9727 149.458 69.1221 149.663 69.2334C149.874 69.3389 150.12 69.3916 150.401 69.3916C150.812 69.3916 151.169 69.3096 151.474 69.1455C151.778 68.9756 152.016 68.7705 152.186 68.5303C152.355 68.29 152.446 68.0615 152.458 67.8447L153.126 68.8467C153.044 69.0869 152.921 69.3418 152.757 69.6113C152.593 69.8809 152.382 70.1328 152.124 70.3672C151.866 70.6016 151.556 70.7949 151.192 70.9473C150.829 71.0996 150.407 71.1758 149.927 71.1758C149.312 71.1758 148.761 71.0527 148.274 70.8066C147.788 70.5605 147.404 70.2236 147.123 69.7959C146.842 69.3682 146.701 68.8818 146.701 68.3369C146.701 67.833 146.795 67.3877 146.982 67.001C147.17 66.6143 147.448 66.2891 147.817 66.0254C148.187 65.7559 148.644 65.5537 149.188 65.4189C149.739 65.2783 150.369 65.208 151.078 65.208H152.643ZM159.208 57.5V71H156.879V57.5H159.208ZM165.694 71.1758C164.974 71.1758 164.326 71.0586 163.752 70.8242C163.178 70.5898 162.688 70.2646 162.284 69.8486C161.886 69.4268 161.578 68.9375 161.361 68.3809C161.15 67.8184 161.045 67.2148 161.045 66.5703V66.2188C161.045 65.4863 161.15 64.8213 161.361 64.2236C161.572 63.6201 161.871 63.1016 162.258 62.668C162.645 62.2344 163.107 61.9004 163.646 61.666C164.186 61.4316 164.78 61.3145 165.431 61.3145C166.104 61.3145 166.699 61.4287 167.215 61.6572C167.73 61.8799 168.161 62.1963 168.507 62.6064C168.853 63.0166 169.113 63.5088 169.289 64.083C169.465 64.6514 169.553 65.2812 169.553 65.9727V66.9482H162.1V65.3486H167.268V65.1729C167.256 64.8037 167.186 64.4668 167.057 64.1621C166.928 63.8516 166.729 63.6055 166.459 63.4238C166.189 63.2363 165.841 63.1426 165.413 63.1426C165.067 63.1426 164.766 63.2188 164.508 63.3711C164.256 63.5176 164.045 63.7285 163.875 64.0039C163.711 64.2734 163.588 64.5957 163.506 64.9707C163.424 65.3457 163.383 65.7617 163.383 66.2188V66.5703C163.383 66.9688 163.436 67.3379 163.541 67.6777C163.652 68.0176 163.813 68.3135 164.024 68.5654C164.241 68.8115 164.499 69.0049 164.798 69.1455C165.103 69.2803 165.448 69.3477 165.835 69.3477C166.321 69.3477 166.761 69.2539 167.153 69.0664C167.552 68.873 167.897 68.5889 168.19 68.2139L169.359 69.4268C169.16 69.7197 168.891 70.001 168.551 70.2705C168.217 70.54 167.812 70.7598 167.338 70.9297C166.863 71.0938 166.315 71.1758 165.694 71.1758Z" fill="#1C1F1E"/>
<rect x="32" y="34" width="63" height="63" rx="13" fill="#F4F6F5"/>
<g clip-path="url(#clip0_9_435)">
<rect width="16" height="27" transform="translate(56 52)" fill="#F4F6F5"/>
<path d="M67.2913 56.2182C67.2913 57.9912 65.8463 59.4361 64.0713 59.4361C62.2961 59.4361 60.8513 57.9912 60.8513 56.2182C60.8513 54.4448 62.2963 53 64.0713 53C65.8463 53 67.2913 54.4448 67.2913 56.2182Z" stroke="#1C1F1E" stroke-width="2"/>
<path d="M68.2882 66.8244L68.2882 66.8244L70.9744 77.0715C70.9744 77.0716 70.9744 77.0717 70.9744 77.0718C71.0344 77.3011 70.9874 77.5327 70.8457 77.7182C70.7042 77.9035 70.4988 78.0039 70.2729 78.0039H57.7946C57.5687 78.0039 57.3633 77.9035 57.2217 77.7182C57.08 77.5326 57.0331 77.3011 57.0932 77.072L57.0933 77.0718L59.7793 66.8244C59.7793 66.8244 59.7793 66.8244 59.7793 66.8244C60.2911 64.8718 62.045 63.5159 64.0339 63.5159C66.0226 63.5159 67.7763 64.8717 68.2882 66.8244Z" stroke="#1C1F1E" stroke-width="2"/>
</g>
</g>
<defs>
<filter id="filter0_d_9_435" x="0" y="0" width="213" height="139" filterUnits="userSpaceOnUse" color-interpolation-filters="sRGB">
<feFlood flood-opacity="0" result="BackgroundImageFix"/>
<feColorMatrix in="SourceAlpha" type="matrix" values="0 0 0 0 0 0 0 0 0 0 0 0 0 0 0 0 0 0 127 0" result="hardAlpha"/>
<feOffset dy="4"/>
<feGaussianBlur stdDeviation="10"/>
<feComposite in2="hardAlpha" operator="out"/>
<feColorMatrix type="matrix" values="0 0 0 0 0.854902 0 0 0 0 0.854902 0 0 0 0 0.854902 0 0 0 0.69 0"/>
<feBlend mode="normal" in2="BackgroundImageFix" result="effect1_dropShadow_9_435"/>
<feBlend mode="normal" in="SourceGraphic" in2="effect1_dropShadow_9_435" result="shape"/>
</filter>
<clipPath id="clip0_9_435">
<rect width="16" height="27" fill="white" transform="translate(56 52)"/>
</clipPath>
</defs>
</svg>
