<svg width="119" height="115" viewBox="0 0 119 115" fill="none" xmlns="http://www.w3.org/2000/svg">
<g clip-path="url(#clip0_9_1623)">
<path fill-rule="evenodd" clip-rule="evenodd" d="M64.9524 27.7498C64.9524 27.1565 64.9524 10.4592 64.9524 9.91671C63.7445 -3.71242 43.7042 -3.15302 43.3299 10.5439C43.3299 15.3412 43.1939 26.0208 43.1768 30.7503C43.1746 32.2892 42.8677 33.8125 42.2736 35.233C41.6795 36.6534 40.8099 37.9431 39.7147 39.0281C38.6195 40.1131 37.3202 40.9721 35.8912 41.5559C34.4623 42.1396 32.9318 42.4367 31.3874 42.43C30.5198 42.43 12.5039 42.5656 11.1089 42.43C8.27545 42.394 5.54369 43.4811 3.5146 45.4521C1.4855 47.4231 0.325293 50.1166 0.289198 52.94C0.253103 55.7634 1.34408 58.4854 3.32213 60.5073C5.30017 62.5292 8.00326 63.6853 10.8367 63.7213H28.4103C50.8323 63.7213 64.9014 55.8218 64.9014 36.7342L64.9524 27.7498Z" fill="#66CA98"/>
<path fill-rule="evenodd" clip-rule="evenodd" d="M54.0305 87.2332C54.0305 87.8265 54.0305 104.524 54.0305 105.066C55.2384 118.628 75.2447 118.102 75.687 104.439C75.687 99.6418 75.8231 88.9623 75.8401 84.2497C75.8401 82.7094 76.1454 81.1842 76.7385 79.7618C77.3316 78.3394 78.2008 77.0477 79.2962 75.9609C80.3916 74.8741 81.6917 74.0136 83.1218 73.4288C84.5518 72.844 86.0837 72.5464 87.6295 72.5531C88.4971 72.5531 106.513 72.4174 107.908 72.5531C109.343 72.6254 110.778 72.4086 112.127 71.9154C113.476 71.4223 114.712 70.6631 115.76 69.6831C116.807 68.7032 117.646 67.5227 118.225 66.2123C118.804 64.9019 119.112 63.4885 119.131 62.0567C119.149 60.625 118.877 59.2042 118.332 57.8795C117.786 56.5548 116.978 55.3534 115.956 54.3472C114.933 53.341 113.718 52.5506 112.382 52.0233C111.046 51.4961 109.617 51.2428 108.18 51.2787H90.5726C68.1506 51.2618 54.0816 59.1613 54.0816 78.2149L54.0305 87.2332Z" fill="#F4A3EC"/>
</g>
<defs>
<clipPath id="clip0_9_1623">
<rect width="119" height="115" fill="white"/>
</clipPath>
</defs>
</svg>
