<svg width="213" height="139" viewBox="0 0 213 139" fill="none" xmlns="http://www.w3.org/2000/svg">
<g filter="url(#filter0_d_9_443)">
<rect x="20" y="16" width="173" height="99" rx="18" fill="white"/>
<path d="M113.276 58.2031H115.368L118.866 67.8359L122.355 58.2031H124.456L119.701 71H118.022L113.276 58.2031ZM112.222 58.2031H114.27L114.639 67.0537V71H112.222V58.2031ZM123.454 58.2031H125.511V71H123.094V67.0537L123.454 58.2031ZM133.034 68.9785V64.5928C133.034 64.2705 132.979 63.9922 132.867 63.7578C132.756 63.5234 132.586 63.3418 132.357 63.2129C132.129 63.084 131.839 63.0195 131.487 63.0195C131.177 63.0195 130.904 63.0723 130.67 63.1777C130.441 63.2832 130.266 63.4326 130.143 63.626C130.02 63.8135 129.958 64.0303 129.958 64.2764H127.629C127.629 63.8838 127.723 63.5117 127.91 63.1602C128.098 62.8027 128.364 62.4863 128.71 62.2109C129.062 61.9297 129.48 61.71 129.967 61.5518C130.459 61.3936 131.01 61.3145 131.619 61.3145C132.34 61.3145 132.981 61.4375 133.544 61.6836C134.112 61.9238 134.558 62.2871 134.88 62.7734C135.208 63.2598 135.372 63.8721 135.372 64.6104V68.7588C135.372 69.2334 135.401 69.6406 135.46 69.9805C135.524 70.3145 135.618 70.6045 135.741 70.8506V71H133.377C133.266 70.7598 133.181 70.4551 133.122 70.0859C133.063 69.7109 133.034 69.3418 133.034 68.9785ZM133.359 65.208L133.377 66.5879H131.909C131.546 66.5879 131.227 66.626 130.951 66.7021C130.676 66.7725 130.45 66.8779 130.274 67.0186C130.099 67.1533 129.967 67.3174 129.879 67.5107C129.791 67.6982 129.747 67.9121 129.747 68.1523C129.747 68.3867 129.8 68.5977 129.905 68.7852C130.017 68.9727 130.175 69.1221 130.38 69.2334C130.591 69.3389 130.837 69.3916 131.118 69.3916C131.528 69.3916 131.886 69.3096 132.19 69.1455C132.495 68.9756 132.732 68.7705 132.902 68.5303C133.072 68.29 133.163 68.0615 133.175 67.8447L133.843 68.8467C133.761 69.0869 133.638 69.3418 133.474 69.6113C133.31 69.8809 133.099 70.1328 132.841 70.3672C132.583 70.6016 132.272 70.7949 131.909 70.9473C131.546 71.0996 131.124 71.1758 130.644 71.1758C130.028 71.1758 129.478 71.0527 128.991 70.8066C128.505 70.5605 128.121 70.2236 127.84 69.7959C127.559 69.3682 127.418 68.8818 127.418 68.3369C127.418 67.833 127.512 67.3877 127.699 67.001C127.887 66.6143 128.165 66.2891 128.534 66.0254C128.903 65.7559 129.36 65.5537 129.905 65.4189C130.456 65.2783 131.086 65.208 131.795 65.208H133.359ZM139.925 57.5V71H137.596V57.5H139.925ZM146.411 71.1758C145.69 71.1758 145.043 71.0586 144.469 70.8242C143.895 70.5898 143.405 70.2646 143.001 69.8486C142.603 69.4268 142.295 68.9375 142.078 68.3809C141.867 67.8184 141.762 67.2148 141.762 66.5703V66.2188C141.762 65.4863 141.867 64.8213 142.078 64.2236C142.289 63.6201 142.588 63.1016 142.975 62.668C143.361 62.2344 143.824 61.9004 144.363 61.666C144.902 61.4316 145.497 61.3145 146.147 61.3145C146.821 61.3145 147.416 61.4287 147.932 61.6572C148.447 61.8799 148.878 62.1963 149.224 62.6064C149.569 63.0166 149.83 63.5088 150.006 64.083C150.182 64.6514 150.27 65.2812 150.27 65.9727V66.9482H142.816V65.3486H147.984V65.1729C147.973 64.8037 147.902 64.4668 147.773 64.1621C147.645 63.8516 147.445 63.6055 147.176 63.4238C146.906 63.2363 146.558 63.1426 146.13 63.1426C145.784 63.1426 145.482 63.2188 145.225 63.3711C144.973 63.5176 144.762 63.7285 144.592 64.0039C144.428 64.2734 144.305 64.5957 144.223 64.9707C144.141 65.3457 144.1 65.7617 144.1 66.2188V66.5703C144.1 66.9688 144.152 67.3379 144.258 67.6777C144.369 68.0176 144.53 68.3135 144.741 68.5654C144.958 68.8115 145.216 69.0049 145.515 69.1455C145.819 69.2803 146.165 69.3477 146.552 69.3477C147.038 69.3477 147.478 69.2539 147.87 69.0664C148.269 68.873 148.614 68.5889 148.907 68.2139L150.076 69.4268C149.877 69.7197 149.607 70.001 149.268 70.2705C148.934 70.54 148.529 70.7598 148.055 70.9297C147.58 71.0938 147.032 71.1758 146.411 71.1758Z" fill="#66CA98"/>
<rect x="32" y="34" width="63" height="63" rx="13" fill="#66CA98"/>
<g clip-path="url(#clip0_9_443)">
<path d="M67.2236 55.22C67.2236 56.9945 65.7781 58.44 64.0036 58.44C62.2288 58.44 60.7836 56.9946 60.7836 55.22C60.7836 53.4455 62.229 52 64.0036 52C65.7781 52 67.2236 53.4455 67.2236 55.22Z" stroke="white" stroke-width="2"/>
<path d="M57.165 63.202L57.1648 63.2023C57.0156 63.405 56.9621 63.6663 57.0278 63.927C57.0278 63.9271 57.0278 63.9272 57.0279 63.9273L59.7141 74.5539L59.7141 74.5539C60.2345 76.613 62.0029 78.0041 63.9662 78.0041C65.9295 78.0041 67.6978 76.613 68.2183 74.5539L68.2183 74.5539L70.9045 63.9275C70.9045 63.9275 70.9046 63.9274 70.9046 63.9273C70.9704 63.6665 70.917 63.4051 70.7678 63.2023L57.165 63.202ZM57.165 63.202C57.3121 63.0022 57.5159 62.9054 57.7272 62.9054H70.2052M57.165 63.202L70.2052 62.9054M70.2052 62.9054C70.4165 62.9054 70.6202 63.002 70.7677 63.2021L70.2052 62.9054Z" stroke="white" stroke-width="2"/>
</g>
</g>
<defs>
<filter id="filter0_d_9_443" x="0" y="0" width="213" height="139" filterUnits="userSpaceOnUse" color-interpolation-filters="sRGB">
<feFlood flood-opacity="0" result="BackgroundImageFix"/>
<feColorMatrix in="SourceAlpha" type="matrix" values="0 0 0 0 0 0 0 0 0 0 0 0 0 0 0 0 0 0 127 0" result="hardAlpha"/>
<feOffset dy="4"/>
<feGaussianBlur stdDeviation="10"/>
<feComposite in2="hardAlpha" operator="out"/>
<feColorMatrix type="matrix" values="0 0 0 0 0.854902 0 0 0 0 0.854902 0 0 0 0 0.854902 0 0 0 0.69 0"/>
<feBlend mode="normal" in2="BackgroundImageFix" result="effect1_dropShadow_9_443"/>
<feBlend mode="normal" in="SourceGraphic" in2="effect1_dropShadow_9_443" result="shape"/>
</filter>
<clipPath id="clip0_9_443">
<rect width="16" height="28" fill="white" transform="translate(56 51)"/>
</clipPath>
</defs>
</svg>
