<svg width="16" height="28" viewBox="0 0 16 28" fill="none" xmlns="http://www.w3.org/2000/svg">
<g clip-path="url(#clip0_9_448)">
<path d="M11.2236 4.22C11.2236 5.99452 9.77809 7.44 8.00357 7.44C6.22882 7.44 4.78357 5.99456 4.78357 4.22C4.78357 2.44548 6.22905 1 8.00357 1C9.77809 1 11.2236 2.44548 11.2236 4.22Z" stroke="white" stroke-width="2"/>
<path d="M1.16504 12.202L1.16481 12.2023C1.01557 12.405 0.962051 12.6663 1.02779 12.927C1.02781 12.9271 1.02783 12.9272 1.02785 12.9273L3.71406 23.5539L3.71406 23.5539C4.23453 25.613 6.0029 27.0041 7.96619 27.0041C9.92947 27.0041 11.6978 25.613 12.2183 23.5539L12.2183 23.5539L14.9045 12.9275C14.9045 12.9275 14.9046 12.9274 14.9046 12.9273C14.9704 12.6665 14.917 12.4051 14.7678 12.2023L1.16504 12.202ZM1.16504 12.202C1.31205 12.0022 1.51595 11.9054 1.72715 11.9054H14.2052M1.16504 12.202L14.2052 11.9054M14.2052 11.9054C14.4165 11.9054 14.6202 12.002 14.7677 12.2021L14.2052 11.9054Z" stroke="white" stroke-width="2"/>
</g>
<defs>
<clipPath id="clip0_9_448">
<rect width="16" height="28" fill="white"/>
</clipPath>
</defs>
</svg>
