<svg width="40" height="40" viewBox="0 0 40 40" fill="none" xmlns="http://www.w3.org/2000/svg">
<rect width="40" height="40" rx="12" fill="#6295E2"/>
<g clip-path="url(#clip0_9_992)">
<path d="M19.1678 20.7647L19.1547 20.7515L19.1412 20.7387C18.2047 19.857 17.449 18.8037 16.914 17.638L18.2299 16.0563L18.248 16.0347L18.2647 16.012C18.437 15.7795 18.5299 15.4978 18.5299 15.2084C18.5299 14.9289 18.4432 14.6564 18.2819 14.4286L15.7075 10.6111C15.5372 10.3481 15.3105 10.1263 15.0438 9.96168C14.7728 9.79446 14.4675 9.69072 14.1507 9.65823C13.8339 9.62574 13.5138 9.66534 13.2145 9.77406C12.921 9.88069 12.6548 10.0511 12.4351 10.273L10.5594 12.0825C10.1732 12.4483 9.88766 12.9074 9.7302 13.4155C9.57215 13.9256 9.54854 14.4678 9.66166 14.9897L9.66203 14.9914C10.4791 18.7298 12.3634 22.1508 15.0864 24.8395L15.0921 24.8451L15.098 24.8507C17.8773 27.5076 21.3479 29.3291 25.1133 30.107C25.6336 30.2155 26.1727 30.1937 26.6826 30.0434C27.1928 29.893 27.6579 29.6187 28.0363 29.2448L29.8491 27.4541C30.0826 27.2336 30.2628 26.9627 30.3758 26.662C30.491 26.3556 30.5334 26.0267 30.4996 25.7011L29.505 25.8043L30.4996 25.7011C30.4658 25.3756 30.3568 25.0623 30.1812 24.7861C30.0087 24.515 29.7768 24.2869 29.5029 24.1191L25.6338 21.6263C25.4085 21.4759 25.1435 21.3956 24.8723 21.3956C24.5944 21.3956 24.3229 21.48 24.094 21.6376L24.0656 21.6572L24.0385 21.6787L22.3998 22.9827C21.1922 22.4574 20.0947 21.705 19.1678 20.7647Z" stroke="white" stroke-width="2"/>
</g>
<defs>
<clipPath id="clip0_9_992">
<rect width="24" height="24" fill="white" transform="translate(8 8)"/>
</clipPath>
</defs>
</svg>
