<svg width="16" height="16" viewBox="0 0 16 16" fill="none" xmlns="http://www.w3.org/2000/svg">
<path d="M7.70757 12.1333L4.9409 13.8C4.81868 13.8778 4.6909 13.9111 4.55757 13.9C4.42423 13.8889 4.30757 13.8444 4.20757 13.7667C4.10757 13.6889 4.02979 13.5918 3.97423 13.4753C3.91868 13.3584 3.90757 13.2278 3.9409 13.0833L4.67423 9.93333L2.22423 7.81667C2.11312 7.71667 2.04379 7.60267 2.01623 7.47467C1.98823 7.34711 1.99646 7.22222 2.0409 7.1C2.08534 6.97778 2.15201 6.87778 2.2409 6.8C2.32979 6.72222 2.45201 6.67222 2.60757 6.65L5.8409 6.36667L7.0909 3.4C7.14645 3.26667 7.23268 3.16667 7.34957 3.1C7.46601 3.03333 7.58534 3 7.70757 3C7.82979 3 7.94934 3.03333 8.06623 3.1C8.18268 3.16667 8.26868 3.26667 8.32423 3.4L9.57423 6.36667L12.8076 6.65C12.9631 6.67222 13.0853 6.72222 13.1742 6.8C13.2631 6.87778 13.3298 6.97778 13.3742 7.1C13.4187 7.22222 13.4271 7.34711 13.3996 7.47467C13.3716 7.60267 13.302 7.71667 13.1909 7.81667L10.7409 9.93333L11.4742 13.0833C11.5076 13.2278 11.4965 13.3584 11.4409 13.4753C11.3853 13.5918 11.3076 13.6889 11.2076 13.7667C11.1076 13.8444 10.9909 13.8889 10.8576 13.9C10.7242 13.9111 10.5965 13.8778 10.4742 13.8L7.70757 12.1333Z" fill="#F4A3EC"/>
</svg>
