<svg width="33" height="32" viewBox="0 0 33 32" fill="none" xmlns="http://www.w3.org/2000/svg">
<g clip-path="url(#clip0_31_731)">
<path fill-rule="evenodd" clip-rule="evenodd" d="M18.0121 7.72172C18.0121 7.55662 18.0121 2.9104 18.0121 2.75945C17.6772 -1.033 12.1198 -0.87734 12.016 2.93398C12.016 4.26889 11.9782 7.24059 11.9735 8.55662C11.9729 8.98483 11.8878 9.40872 11.723 9.80398C11.5583 10.1992 11.3172 10.5581 11.0134 10.86C10.7097 11.1619 10.3494 11.401 9.95315 11.5634C9.55689 11.7258 9.13246 11.8085 8.70419 11.8066C8.46359 11.8066 3.4676 11.8444 3.08075 11.8066C2.29499 11.7966 1.53745 12.0991 0.974757 12.6476C0.412067 13.196 0.0903284 13.9455 0.0803188 14.7312C0.0703092 15.5168 0.372849 16.2742 0.921383 16.8368C1.46992 17.3995 2.21951 17.7211 3.00527 17.7312H7.8786C14.0965 17.7312 17.998 15.533 17.998 10.2217L18.0121 7.72172Z" fill="#F4F6F5"/>
<path fill-rule="evenodd" clip-rule="evenodd" d="M14.9834 24.2736C14.9834 24.4387 14.9834 29.0849 14.9834 29.2359C15.3184 33.0094 20.8663 32.8632 20.989 29.0613C20.989 27.7264 21.0267 24.7547 21.0314 23.4434C21.0314 23.0148 21.1161 22.5904 21.2806 22.1946C21.445 21.7988 21.6861 21.4394 21.9899 21.137C22.2936 20.8345 22.6541 20.5951 23.0507 20.4324C23.4473 20.2696 23.8721 20.1868 24.3008 20.1887C24.5414 20.1887 29.5374 20.151 29.9242 20.1887C30.3222 20.2088 30.7202 20.1485 31.0943 20.0113C31.4684 19.874 31.811 19.6628 32.1015 19.3901C32.3921 19.1174 32.6246 18.7889 32.7853 18.4243C32.9459 18.0597 33.0313 17.6664 33.0364 17.268C33.0415 16.8696 32.9661 16.4742 32.8148 16.1056C32.6636 15.737 32.4395 15.4027 32.156 15.1227C31.8724 14.8427 31.5354 14.6228 31.1649 14.4761C30.7944 14.3294 30.3981 14.2589 29.9997 14.2689H25.1169C18.8991 14.2642 14.9976 16.4623 14.9976 21.7642L14.9834 24.2736Z" fill="#F4A3EC"/>
</g>
<defs>
<clipPath id="clip0_31_731">
<rect width="33" height="32" fill="white"/>
</clipPath>
</defs>
</svg>
