<svg width="16" height="27" viewBox="0 0 16 27" fill="none" xmlns="http://www.w3.org/2000/svg">
<path d="M12.2507 -0.784005L14.9484 22.2115C14.9484 22.2115 14.9484 22.2116 14.9484 22.2116C15.0722 23.2686 14.9679 24.3481 14.6928 25.1533C14.5543 25.5583 14.4033 25.8048 14.2888 25.9317C14.2563 25.9678 14.2324 25.9886 14.2173 26H1.78256C1.76746 25.9886 1.74357 25.9678 1.71108 25.9317C1.59664 25.8048 1.44557 25.5583 1.30715 25.1533C1.03196 24.348 0.927669 23.2686 1.05175 22.2117L1.05177 22.2116L3.74919 -0.784012C4.05275 -3.37182 4.71979 -5.50559 5.55802 -6.96005C6.42283 -8.4606 7.31443 -9 8.00008 -9C8.68572 -9 9.57725 -8.46063 10.442 -6.96007C11.2802 -5.50562 11.9471 -3.37184 12.2507 -0.784012L13.2439 -0.900519L12.2507 -0.784005ZM14.198 26.0123C14.198 26.0121 14.1997 26.0111 14.2031 26.0098C14.1997 26.0118 14.198 26.0125 14.198 26.0123ZM1.8019 26.0123C1.8019 26.0125 1.80018 26.0118 1.79677 26.0097C1.8002 26.0111 1.80191 26.0121 1.8019 26.0123Z" stroke="#1C1F1E" stroke-width="2"/>
</svg>
